<?xml version="1.0" encoding="UTF-8"?>
<svg id="Calque_1" xmlns="http://www.w3.org/2000/svg" xmlns:xlink="http://www.w3.org/1999/xlink" xmlns:serif="http://www.serif.com/" version="1.1" viewBox="0 0 14 16">
  <!-- Generator: Adobe Illustrator 30.5.1, SVG Export Plug-In . SVG Version: 2.1.4 Build 3)  -->
  <defs>
    <style>
      .st0 {
        fill: none;
      }

      .st1 {
        fill: #fff;
      }

      .st1, .st2, .st3 {
        fill-rule: evenodd;
      }

      .st2 {
        fill: #ffc35c;
      }

      .st4 {
        isolation: isolate;
      }

      .st5 {
        clip-path: url(#clippath-1);
      }

      .st6, .st3 {
        fill: #ffa300;
      }

      .st7 {
        clip-path: url(#clippath);
      }
    </style>
    <clipPath id="clippath">
      <path class="st0" d="M3.2,11.7l2.9-7.6c0,0,.1-.1.2-.1h1.1c0,0,.2,0,.2.1l3.1,7.6c0,0,0,.1,0,.2,0,0-.1,0-.2,0h-1.1c0,0-.2,0-.2-.1l-.8-2.1h-2.9l-.8,2.1c0,0-.1.1-.2.1h-1.1c0,0-.1,0-.2,0,0,0,0-.1,0-.2ZM5.9,8.5h1.9l-.7-1.8c-.1-.3-.2-.6-.3-.8,0,.2-.1.5-.2.7h0s-.7,1.9-.7,1.9Z"/>
    </clipPath>
    <clipPath id="clippath-1">
      <path class="st0" d="M3.8,14.6l-.7-1.8s0,0,0,0c0,0,0,0,0,0h.2s0,0,0,0l.4,1.3s0,0,0,.1c0,0,0,0,0-.1l.5-1.3s0,0,0,0h.2s0,0,0,0c0,0,0,0,0,0l-.7,1.8s0,0,0,0h-.2s0,0,0,0ZM4.9,14.6v-1.8s0,0,0,0h1.2s0,0,0,0v.2s0,0,0,0h-1v.4h.9s0,0,0,0v.2s0,0,0,0h-.9v.5h1s0,0,0,0v.2s0,0,0,0h-1.3s0,0,0,0ZM6.5,14.6v-1.8s0,0,0,0h.2s0,0,0,0v1.5h.8s0,0,0,0v.2s0,0,0,0h-1.1s0,0,0,0ZM7.7,14.6l.7-1.8s0,0,0,0h.2s0,0,0,0l.7,1.8s0,0,0,0c0,0,0,0,0,0h-.3s0,0,0,0l-.2-.5h-.6l-.2.5s0,0,0,0h-.2s0,0,0,0c0,0,0,0,0,0ZM8.3,13.8h.4l-.2-.4c0,0,0-.1,0-.2,0,0,0,0,0,.1h0s-.2.4-.2.4ZM9.8,14.6v-.7l-.7-1s0,0,0,0c0,0,0,0,0,0h.3s0,0,0,0l.3.5h0c0,0,0,.1.1.2,0,0,0-.1.1-.2h0s.3-.5.3-.5c0,0,0,0,0,0h.3s0,0,0,0c0,0,0,0,0,0l-.7,1v.7s0,0,0,0h-.2s0,0,0,0Z"/>
    </clipPath>
  </defs>
  <image id="_Image1" class="st4" width="1188" height="1360" transform="scale(0)" xlink:href="faviconIAVelay-1.png"/>
  <rect class="st6" x="7.5" y="4.1" width="0" height=".1" transform="translate(.6 9.2) rotate(-65.3)"/>
  <rect class="st6" x="6.2" y="4.1" width=".1" height="0" transform="translate(-1.1 2.8) rotate(-23.4)"/>
  <rect class="st6" x="6.2" y="4" width="0" height=".1"/>
  <rect class="st6" x="7.4" y="4.2" width="0" height=".2"/>
  <rect class="st6" x="6.3" y="4.2" width="0" height="0" transform="translate(-1.3 4.3) rotate(-34.4)"/>
  <rect class="st6" x="7.5" y="4.1" width="0" height=".1" transform="translate(-.1 8.2) rotate(-56.8)"/>
  <g class="st7">
    <path class="st2" d="M3.2,11.7l2.9-7.6c0,0,.1-.1.2-.1h1.1c0,0,.2,0,.2.1l3.1,7.6c0,0,0,.1,0,.2,0,0-.1,0-.2,0h-1.1c0,0-.2,0-.2-.1l-.8-2.1h-2.9l-.8,2.1c0,0-.1.1-.2.1h-1.1c0,0-.1,0-.2,0,0,0,0-.1,0-.2ZM5.9,8.5h1.9l-.7-1.8c-.1-.3-.2-.6-.3-.8,0,.2-.1.5-.2.7h0s-.7,1.9-.7,1.9Z"/>
  </g>
  <path class="st1" d="M7.1,5.9l1,2.5c0,0,0,.1,0,.2,0,0,0,0-.2,0h-2.1c0,0-.1,0-.2,0,0,0,0-.1,0-.2l1-2.5c0,0,.1-.1.2-.1s.2,0,.2.1Z"/>
  <g class="st5">
    <g>
      <path class="st3" d="M3.8,14.6l-.7-1.8s0,0,0,0c0,0,0,0,0,0h.2s0,0,0,0l.4,1.3s0,0,0,.1c0,0,0,0,0-.1l.5-1.3s0,0,0,0h.2s0,0,0,0c0,0,0,0,0,0l-.7,1.8s0,0,0,0h-.2s0,0,0,0Z"/>
      <path class="st3" d="M4.9,14.6v-1.8s0,0,0,0h1.2s0,0,0,0v.2s0,0,0,0h-1v.4h.9s0,0,0,0v.2s0,0,0,0h-.9v.5h1s0,0,0,0v.2s0,0,0,0h-1.3s0,0,0,0Z"/>
      <path class="st3" d="M6.5,14.6v-1.8s0,0,0,0h.2s0,0,0,0v1.5h.8s0,0,0,0v.2s0,0,0,0h-1.1s0,0,0,0Z"/>
      <path class="st3" d="M7.7,14.6l.7-1.8s0,0,0,0h.2s0,0,0,0l.7,1.8s0,0,0,0c0,0,0,0,0,0h-.3s0,0,0,0l-.2-.5h-.6l-.2.5s0,0,0,0h-.2s0,0,0,0c0,0,0,0,0,0ZM8.3,13.8h.4l-.2-.4c0,0,0-.1,0-.2,0,0,0,0,0,.1h0s-.2.4-.2.4Z"/>
      <path class="st3" d="M9.8,14.6v-.7l-.7-1s0,0,0,0c0,0,0,0,0,0h.3s0,0,0,0l.3.5h0c0,0,0,.1.1.2,0,0,0-.1.1-.2h0s.3-.5.3-.5c0,0,0,0,0,0h.3s0,0,0,0c0,0,0,0,0,0l-.7,1v.7s0,0,0,0h-.2s0,0,0,0Z"/>
    </g>
  </g>
</svg>